<mxfile host="app.diagrams.net" agent="Mozilla/5.0 (Windows NT 10.0; Win64; x64) AppleWebKit/537.36 (KHTML, like Gecko) Chrome/137.0.0.0 Safari/537.36" version="27.1.3">
  <diagram name="Página-1" id="vt1rHgg0ArSbJZfsaHs7">
    <mxGraphModel dx="1426" dy="785" grid="1" gridSize="10" guides="1" tooltips="1" connect="1" arrows="1" fold="1" page="1" pageScale="1" pageWidth="827" pageHeight="1169" background="light-dark(#CBE1F4,#FFF6E6)" math="0" shadow="0">
      <root>
        <mxCell id="0" />
        <mxCell id="1" parent="0" />
        <mxCell id="Qm-GU70TvJSOYOnNJeYJ-30" style="edgeStyle=orthogonalEdgeStyle;rounded=0;orthogonalLoop=1;jettySize=auto;html=1;endArrow=ERoneToMany;endFill=0;strokeColor=light-dark(#000000,#000000);" edge="1" parent="1" source="Qm-GU70TvJSOYOnNJeYJ-14" target="Qm-GU70TvJSOYOnNJeYJ-22">
          <mxGeometry relative="1" as="geometry">
            <Array as="points">
              <mxPoint x="470" y="380" />
              <mxPoint x="470" y="380" />
            </Array>
          </mxGeometry>
        </mxCell>
        <mxCell id="Qm-GU70TvJSOYOnNJeYJ-32" style="edgeStyle=orthogonalEdgeStyle;rounded=0;orthogonalLoop=1;jettySize=auto;html=1;endArrow=ERoneToMany;endFill=0;strokeColor=light-dark(#000000,#000000);" edge="1" parent="1" source="Qm-GU70TvJSOYOnNJeYJ-14" target="Qm-GU70TvJSOYOnNJeYJ-26">
          <mxGeometry relative="1" as="geometry" />
        </mxCell>
        <mxCell id="Qm-GU70TvJSOYOnNJeYJ-33" style="edgeStyle=orthogonalEdgeStyle;rounded=0;orthogonalLoop=1;jettySize=auto;html=1;endArrow=ERoneToMany;endFill=0;strokeColor=light-dark(#000000,#000000);" edge="1" parent="1" source="Qm-GU70TvJSOYOnNJeYJ-14" target="Qm-GU70TvJSOYOnNJeYJ-18">
          <mxGeometry relative="1" as="geometry" />
        </mxCell>
        <mxCell id="Qm-GU70TvJSOYOnNJeYJ-14" value="iPhone" style="swimlane;fontStyle=0;childLayout=stackLayout;horizontal=1;startSize=30;horizontalStack=0;resizeParent=1;resizeParentMax=0;resizeLast=0;collapsible=1;marginBottom=0;whiteSpace=wrap;html=1;fillColor=#e6d0de;strokeColor=#996185;gradientColor=#d5739d;" vertex="1" parent="1">
          <mxGeometry x="320" y="350" width="210" height="60" as="geometry" />
        </mxCell>
        <mxCell id="Qm-GU70TvJSOYOnNJeYJ-15" value="+ Touch System" style="text;strokeColor=#36393d;fillColor=light-dark(#FFCCCC,#E7B9B9);align=left;verticalAlign=middle;spacingLeft=4;spacingRight=4;overflow=hidden;points=[[0,0.5],[1,0.5]];portConstraint=eastwest;rotatable=0;whiteSpace=wrap;html=1;fontColor=light-dark(#000000,#180811);" vertex="1" parent="Qm-GU70TvJSOYOnNJeYJ-14">
          <mxGeometry y="30" width="210" height="30" as="geometry" />
        </mxCell>
        <mxCell id="Qm-GU70TvJSOYOnNJeYJ-18" value="Reprodutor Musical" style="swimlane;fontStyle=0;childLayout=stackLayout;horizontal=1;startSize=30;horizontalStack=0;resizeParent=1;resizeParentMax=0;resizeLast=0;collapsible=1;marginBottom=0;whiteSpace=wrap;html=1;fillColor=#e6d0de;strokeColor=#996185;gradientColor=#d5739d;" vertex="1" parent="1">
          <mxGeometry x="355" y="490" width="140" height="120" as="geometry" />
        </mxCell>
        <mxCell id="Qm-GU70TvJSOYOnNJeYJ-19" value="+ tocar()&amp;nbsp; : void" style="text;strokeColor=#314354;fillColor=light-dark(#647687,#E7B9B9);align=left;verticalAlign=middle;spacingLeft=4;spacingRight=4;overflow=hidden;points=[[0,0.5],[1,0.5]];portConstraint=eastwest;rotatable=0;whiteSpace=wrap;html=1;fontColor=#ffffff;" vertex="1" parent="Qm-GU70TvJSOYOnNJeYJ-18">
          <mxGeometry y="30" width="140" height="30" as="geometry" />
        </mxCell>
        <mxCell id="Qm-GU70TvJSOYOnNJeYJ-20" value="+ pausar() : void" style="text;strokeColor=#314354;fillColor=light-dark(#647687,#FFCCCC);align=left;verticalAlign=middle;spacingLeft=4;spacingRight=4;overflow=hidden;points=[[0,0.5],[1,0.5]];portConstraint=eastwest;rotatable=0;whiteSpace=wrap;html=1;fontColor=#ffffff;" vertex="1" parent="Qm-GU70TvJSOYOnNJeYJ-18">
          <mxGeometry y="60" width="140" height="30" as="geometry" />
        </mxCell>
        <mxCell id="Qm-GU70TvJSOYOnNJeYJ-21" value="+ selecionarMusica() : void" style="text;strokeColor=#314354;fillColor=light-dark(#647687,#E7B9B9);align=left;verticalAlign=middle;spacingLeft=4;spacingRight=4;overflow=hidden;points=[[0,0.5],[1,0.5]];portConstraint=eastwest;rotatable=0;whiteSpace=wrap;html=1;fontColor=#ffffff;" vertex="1" parent="Qm-GU70TvJSOYOnNJeYJ-18">
          <mxGeometry y="90" width="140" height="30" as="geometry" />
        </mxCell>
        <mxCell id="Qm-GU70TvJSOYOnNJeYJ-22" value="Aparelho Telefônico" style="swimlane;fontStyle=0;childLayout=stackLayout;horizontal=1;startSize=30;horizontalStack=0;resizeParent=1;resizeParentMax=0;resizeLast=0;collapsible=1;marginBottom=0;whiteSpace=wrap;html=1;fillColor=#e6d0de;strokeColor=#996185;gradientColor=#d5739d;" vertex="1" parent="1">
          <mxGeometry x="610" y="320" width="140" height="120" as="geometry" />
        </mxCell>
        <mxCell id="Qm-GU70TvJSOYOnNJeYJ-23" value="+ ligar() : void" style="text;strokeColor=#314354;fillColor=light-dark(#647687,#E7B9B9);align=left;verticalAlign=middle;spacingLeft=4;spacingRight=4;overflow=hidden;points=[[0,0.5],[1,0.5]];portConstraint=eastwest;rotatable=0;whiteSpace=wrap;html=1;fontColor=#ffffff;" vertex="1" parent="Qm-GU70TvJSOYOnNJeYJ-22">
          <mxGeometry y="30" width="140" height="30" as="geometry" />
        </mxCell>
        <mxCell id="Qm-GU70TvJSOYOnNJeYJ-24" value="+ atender() : void" style="text;strokeColor=#314354;fillColor=light-dark(#647687,#FFCCCC);align=left;verticalAlign=middle;spacingLeft=4;spacingRight=4;overflow=hidden;points=[[0,0.5],[1,0.5]];portConstraint=eastwest;rotatable=0;whiteSpace=wrap;html=1;fontColor=#ffffff;" vertex="1" parent="Qm-GU70TvJSOYOnNJeYJ-22">
          <mxGeometry y="60" width="140" height="30" as="geometry" />
        </mxCell>
        <mxCell id="Qm-GU70TvJSOYOnNJeYJ-25" value="+ iniciarCorreioVoz() : void" style="text;strokeColor=#314354;fillColor=light-dark(#647687,#E7B9B9);align=left;verticalAlign=middle;spacingLeft=4;spacingRight=4;overflow=hidden;points=[[0,0.5],[1,0.5]];portConstraint=eastwest;rotatable=0;whiteSpace=wrap;html=1;fontColor=#ffffff;" vertex="1" parent="Qm-GU70TvJSOYOnNJeYJ-22">
          <mxGeometry y="90" width="140" height="30" as="geometry" />
        </mxCell>
        <mxCell id="Qm-GU70TvJSOYOnNJeYJ-26" value="Navegador na Internet" style="swimlane;fontStyle=0;childLayout=stackLayout;horizontal=1;startSize=30;horizontalStack=0;resizeParent=1;resizeParentMax=0;resizeLast=0;collapsible=1;marginBottom=0;whiteSpace=wrap;html=1;fillColor=#e6d0de;strokeColor=#996185;gradientColor=#d5739d;" vertex="1" parent="1">
          <mxGeometry x="90" y="320" width="140" height="120" as="geometry" />
        </mxCell>
        <mxCell id="Qm-GU70TvJSOYOnNJeYJ-27" value="+ exibirPagina() : void" style="text;strokeColor=#314354;fillColor=light-dark(#647687,#E7B9B9);align=left;verticalAlign=middle;spacingLeft=4;spacingRight=4;overflow=hidden;points=[[0,0.5],[1,0.5]];portConstraint=eastwest;rotatable=0;whiteSpace=wrap;html=1;fontColor=#ffffff;" vertex="1" parent="Qm-GU70TvJSOYOnNJeYJ-26">
          <mxGeometry y="30" width="140" height="30" as="geometry" />
        </mxCell>
        <mxCell id="Qm-GU70TvJSOYOnNJeYJ-28" value="+ adicionarNovaAba() : void" style="text;strokeColor=#314354;fillColor=light-dark(#647687,#FFCCCC);align=left;verticalAlign=middle;spacingLeft=4;spacingRight=4;overflow=hidden;points=[[0,0.5],[1,0.5]];portConstraint=eastwest;rotatable=0;whiteSpace=wrap;html=1;fontColor=#ffffff;" vertex="1" parent="Qm-GU70TvJSOYOnNJeYJ-26">
          <mxGeometry y="60" width="140" height="30" as="geometry" />
        </mxCell>
        <mxCell id="Qm-GU70TvJSOYOnNJeYJ-29" value="+ atualizarPagina() : void" style="text;strokeColor=#314354;fillColor=light-dark(#647687,#E7B9B9);align=left;verticalAlign=middle;spacingLeft=4;spacingRight=4;overflow=hidden;points=[[0,0.5],[1,0.5]];portConstraint=eastwest;rotatable=0;whiteSpace=wrap;html=1;fontColor=#ffffff;" vertex="1" parent="Qm-GU70TvJSOYOnNJeYJ-26">
          <mxGeometry y="90" width="140" height="30" as="geometry" />
        </mxCell>
        <mxCell id="Qm-GU70TvJSOYOnNJeYJ-34" value="&lt;h1 style=&quot;margin-top: 0px;&quot;&gt;Diagrama Classes do iPhone&lt;/h1&gt;" style="text;html=1;whiteSpace=wrap;overflow=hidden;rounded=0;align=center;fontColor=light-dark(#000000,#000000);" vertex="1" parent="1">
          <mxGeometry x="217" y="247" width="416" height="50" as="geometry" />
        </mxCell>
        <mxCell id="Qm-GU70TvJSOYOnNJeYJ-37" value="&lt;h1 style=&quot;margin-top: 0px;&quot;&gt;&lt;span style=&quot;font-weight: 400;&quot;&gt;&lt;font style=&quot;color: light-dark(rgb(0, 0, 0), rgb(0, 0, 0));&quot;&gt;Juliana Pereira Ramos Nadruz&lt;/font&gt;&lt;/span&gt;&lt;/h1&gt;" style="text;html=1;whiteSpace=wrap;overflow=hidden;rounded=0;textShadow=1;fontSize=10;" vertex="1" parent="1">
          <mxGeometry x="280" y="287" width="280" height="33" as="geometry" />
        </mxCell>
        <mxCell id="Qm-GU70TvJSOYOnNJeYJ-38" value="" style="endArrow=none;html=1;rounded=0;fontColor=light-dark(#000000,#000000);strokeColor=light-dark(#000000,#000000);" edge="1" parent="1">
          <mxGeometry width="50" height="50" relative="1" as="geometry">
            <mxPoint x="40" y="287" as="sourcePoint" />
            <mxPoint x="800" y="287" as="targetPoint" />
            <Array as="points">
              <mxPoint x="393" y="287" />
            </Array>
          </mxGeometry>
        </mxCell>
      </root>
    </mxGraphModel>
  </diagram>
</mxfile>
